# xmcd CD database file
#
# Track frame offsets:
#	150
#	12865
#	28302
#	42767
#	57872
#	72100
#	89270
#	101740
#	117527
#	140705
#	158010
#	173005
#	186402
#	208877
#	229827
#	239355
#
# Disc length: 3383 seconds
#
# Revision: 0
# Processed by: cddbd v1.4PL0 Copyright (c) Steve Scherf et al.
# Submitted via: CDex 1.50Beta7
#
DISCID=e20d3510
DTITLE=Charlie Parker - Bird
DYEAR=2002
DGENRE=Jazz
TTITLE0=All The Things You Are
TTITLE1=Lover Man
TTITLE2=This Is Always
TTITLE3=Embraceable Man
TTITLE4=My Old Flame
TTITLE5=Out Of Nowhere
TTITLE6=Don't Blame Me
TTITLE7=How Deep Is The Ocean
TTITLE8=Slow Boat To China
TTITLE9=Slow Boat To China
TTITLE10=Out Of Nowhere
TTITLE11=How High The Moon
TTITLE12=White Christmas
TTITLE13=East Of The Sun (And West Of The Moon)
TTITLE14=These Foolish Things Remind Me Of You
TTITLE15=Goodbye
EXTD=YEAR: 2002
EXTT0=
EXTT1=
EXTT2=
EXTT3=
EXTT4=
EXTT5=
EXTT6=
EXTT7=
EXTT8=
EXTT9=
EXTT10=
EXTT11=
EXTT12=
EXTT13=
EXTT14=
EXTT15=
PLAYORDER=
